HIERARCHY
ROOT Hip
{
    OFFSET 0.0 0.0 0.0
    CHANNELS 6 Xposition Yposition Zposition Zrotation Xrotation Yrotation
    JOINT RightHip
    {
        OFFSET -12.308971405029297 0.0 0.0
        CHANNELS 3 Zrotation Xrotation Yrotation
        JOINT RightKnee
        {
            OFFSET 0.0 0.0 -42.94720458984375
            CHANNELS 3 Zrotation Xrotation Yrotation
            JOINT RightAnkle
            {
                OFFSET 0.0 0.0 -43.262550354003906
                CHANNELS 3 Zrotation Xrotation Yrotation
                End Site
                {
                    OFFSET 0.0 -17.30501937866211 0.0
                }
            }
        }
    }
    JOINT LeftHip
    {
        OFFSET 12.308971405029297 0.0 0.0
        CHANNELS 3 Zrotation Xrotation Yrotation
        JOINT LeftKnee
        {
            OFFSET 0.0 0.0 -42.94720458984375
            CHANNELS 3 Zrotation Xrotation Yrotation
            JOINT LeftAnkle
            {
                OFFSET 0.0 0.0 -43.262550354003906
                CHANNELS 3 Zrotation Xrotation Yrotation
                End Site
                {
                    OFFSET 0.0 -17.30501937866211 0.0
                }
            }
        }
    }
    JOINT Spine
    {
        OFFSET 0.0 0.0 22.683095932006836
        CHANNELS 3 Zrotation Xrotation Yrotation
        JOINT Thorax
        {
            OFFSET 0.0 0.0 25.6595516204834
            CHANNELS 3 Zrotation Xrotation Yrotation
            JOINT Neck
            {
                OFFSET 0.0 0.0 9.6496000289917
                CHANNELS 3 Zrotation Xrotation Yrotation
                End Site
                {
                    OFFSET 0.0 0.0 3.859839677810669
                }
            }
            JOINT LeftShoulder
            {
                OFFSET 14.079702377319336 0.0 0.0
                CHANNELS 3 Zrotation Xrotation Yrotation
                JOINT LeftElbow
                {
                    OFFSET 26.46230697631836 0.0 0.0
                    CHANNELS 3 Zrotation Xrotation Yrotation
                    JOINT LeftWrist
                    {
                        OFFSET 21.889299392700195 0.0 0.0
                        CHANNELS 3 Zrotation Xrotation Yrotation
                        End Site
                        {
                            OFFSET 8.755720138549805 0.0 0.0
                        }
                    }
                }
            }
            JOINT RightShoulder
            {
                OFFSET -14.079702377319336 0.0 0.0
                CHANNELS 3 Zrotation Xrotation Yrotation
                JOINT RightElbow
                {
                    OFFSET -26.46230697631836 0.0 0.0
                    CHANNELS 3 Zrotation Xrotation Yrotation
                    JOINT RightWrist
                    {
                        OFFSET -21.889299392700195 0.0 0.0
                        CHANNELS 3 Zrotation Xrotation Yrotation
                        End Site
                        {
                            OFFSET -8.755720138549805 0.0 0.0
                        }
                    }
                }
            }
        }
    }
}
MOTION
Frames: 7
Frame Time: 0.03333333333333333
0.00041634702938608825 -0.0023627548944205046 0.00016228390450123698 149.3434955982564 36.261085390261584 -133.12157317894355 -7.068983340802127 -42.90599209526406 -2.829703812786006 4.717308871803522 31.992057937916435 0.5844162679849975 0.0 -7.951386703658791e-16 0.0 -14.050672518368252 -61.421986370712034 -22.615849429483887 -3.351401112898654 26.409228158985258 -1.481721462930992 4.770832022195275e-15 0.0 0.0 2.090320538654595 15.40824097897048 3.2203993967963545 1.6628929457982968 -6.974685217751531e-07 7.631542839250113e-07 3.0869426673482763 2.6875811863956036 2.1579586655227194 -15.590829168156727 -14.62473418097435 64.2686142902936 -45.04617052733027 6.289043922313537e-07 8.775898063317688e-07 -6.3611093629270335e-15 3.1805546814635168e-15 1.7655625192200634e-31 41.49859308639621 -5.0315266946009665 -61.006795098336674 76.66299348341012 1.8243255880840037e-07 -8.463231524003676e-07 -7.603513535373721e-15 5.27599737188808e-32 -7.951386703658794e-16
0.0003877550479955971 -0.0023851036094129086 0.00016780741862021387 149.70933077708062 35.402735023201544 -133.074913874066 -7.279463613501135 -43.83441776520861 -2.5348564231590474 5.068975968910282 32.41366628164334 0.039251447600785624 -3.1805546814635168e-15 -6.3611093629270335e-15 3.1805546814635168e-15 -14.732309090075352 -62.60067267960488 -23.04826485034689 -3.390812870533244 27.23395478516695 -1.2979984587613498 -3.1805546814635168e-15 3.9756933518293955e-16 1.5902773407317584e-15 2.09365775467628 15.47975580028786 3.3499947357161988 1.2436527897164464 -9.657020299745895e-07 2.0955253225955987e-06 3.4426525715199046 2.4214168409886234 3.164006624613565 -16.73450998864741 -15.443645474122972 63.47079374394179 -44.824996780551885 2.990987684118075e-06 -3.505074289500554e-06 -8.827812596100317e-32 3.1805546814635168e-15 3.1805546814635168e-15 42.12871694930346 -5.494369319482113 -60.421266381281946 75.81143300938736 1.5677466543215308e-06 1.3322588180820022e-06 1.3914926731402886e-15 0.0 0.0
0.0003424038295634091 -0.0024314632173627615 0.00018046439799945801 150.12296534067576 34.06137059531548 -132.80702429650853 -7.471365733593618 -44.86644801558186 -2.257013206987076 5.356091543503403 32.67362398021617 -0.5873045687651082 0.0 0.0 0.0 -15.661609656041083 -64.20289821985145 -23.843864070114158 -3.4948320244269713 27.953462531665725 -0.7187040406931536 -1.5902773407317584e-15 6.3611093629270335e-15 8.827812596100317e-32 2.028675663013012 15.167528432429357 3.2483395812035676 0.7789041666854228 2.5968327778182305e-06 -2.5492860849517934e-06 4.290496748826542 2.114230939653813 4.564059046408964 -18.267445847537477 -16.074674055110577 62.20945458554499 -44.36643657427416 2.0293575703053313e-07 -2.2073432875691685e-06 0.0 0.0 -6.3611093629270335e-15 43.12169829490208 -5.867652171743912 -59.99641776940565 73.90940772125873 3.7641033772262824e-07 2.4194390935642516e-07 -2.3854160110976376e-15 -1.6552148617688095e-32 7.951386703658792e-16
0.00031581567600369453 -0.002462534699589014 0.00018135941354557872 151.11182631982948 32.87791940747739 -132.84938693930377 -7.906029106508474 -45.97174179294225 -2.3227656472313845 5.532891461416409 32.46894747806507 -1.052962714961101 0.0 0.0 0.0 -17.102448152080612 -65.69565374220288 -25.549278286494165 -3.729125122856681 28.256215637520548 0.3464526564630392 3.1805546814635168e-15 -6.3611093629270335e-15 1.7655625192200634e-31 2.034906603785367 14.957882696080398 3.016691233628817 0.3623590083875487 -7.819530198338307e-07 1.1707859068600664e-06 5.305461781192844 2.1034613410390723 5.624724561541241 -20.503814748578407 -16.54320720437917 60.14699270120826 -43.340922797691164 2.7335054484946393e-06 -1.840093018238005e-06 0.0 0.0 -3.1805546814635168e-15 43.771694828401735 -6.594990016480209 -59.176914732073556 71.01112154083079 -3.900267919211274e-08 2.7376497323654e-06 4.373262687012335e-15 0.0 0.0
0.00031614163890480995 -0.0024799350649118423 0.0001768407237250358 152.21545605332201 31.913683198659903 -132.89758054046487 -8.461798793536676 -47.07245830037777 -2.5941454824853563 5.68837278927763 32.337219913513835 -1.418404601183874 0.0 -7.951386703658792e-16 0.0 -18.872644772613825 -67.08757698166357 -27.73018425785387 -4.09349314132187 28.87722213543925 1.5050709386938759 3.1805546814635168e-15 0.0 0.0 2.087958726454388 14.91108351353571 2.9205815346235733 -0.4937468177375645 -1.416263253452258e-06 1.9776990555313814e-07 6.046677962960148 1.8600275406831752 5.733752816361516 -21.572378308969128 -18.019662370468357 58.63030892764379 -41.434602025105754 5.440196378983197e-07 8.252274388156722e-07 0.0 -3.1805546814635168e-15 0.0 44.13947728024628 -7.074398689097044 -58.942199568885556 68.60157910986398 -1.8321600628687972e-06 9.76165540990014e-07 1.8884543421189626e-15 1.3103784322336408e-32 7.951386703658791e-16
0.00028819977887906134 -0.002514961874112487 0.0001736402919050306 153.31889363591532 30.65637807424097 -133.05002445484487 -9.041253982796297 -48.392905285584206 -2.7320760306541794 5.92028804971369 32.23470073404905 -1.7279348388864177 0.0 0.0 0.0 -21.00055099098781 -68.74433703393353 -30.017105376499618 -4.377283062144536 29.64983975475572 2.533483020500816 -1.5902773407317584e-15 6.3611093629270335e-15 -1.5902773407317584e-15 2.1519280170471653 15.064581559874657 2.806465139537829 -1.4113224221062495 6.777930935444372e-07 1.9680007361595427e-07 6.5831728775944605 1.7295929208091478 5.846719613885637 -22.14285485422261 -19.49414495702551 57.53257232573344 -40.63373878367526 5.821809011787444e-06 3.9450125960498937e-07 0.0 6.3611093629270335e-15 0.0 43.90710891492239 -8.010658094012014 -58.95737540298191 66.5523774293977 -1.3540838940815135e-06 8.104739739594986e-07 1.4908850069360234e-15 -1.0345092886055059e-32 -7.951386703658792e-16
0.0002655093267094344 -0.002577258041128516 0.00016781070735305548 154.74655788323943 29.42378509328055 -133.42296529919693 -9.623193725719547 -49.938752941733796 -2.780395299960031 6.125096006925296 31.92179068737283 -2.0359136776583346 3.1805546814635168e-15 1.7655625192200634e-31 6.3611093629270335e-15 -23.279371101220487 -70.43899283672734 -32.51952477490058 -4.697932325703211 30.279659673732986 3.406889060680545 0.0 0.0 0.0 2.171024979932364 15.08666785512345 2.769515459809406 -2.085501533643196 1.2241937225475214e-06 -1.46711832054936e-06 7.1086471913382265 1.1254785337490347 6.1688583573732405 -22.90847294710603 -21.055721284629712 56.66241679781344 -39.40722413148125 5.2008455724630974e-06 -1.3425873890216766e-06 6.3611093629270335e-15 6.3611093629270335e-15 6.3611093629270335e-15 43.76522675438956 -9.008001360825048 -58.60954905638605 64.41749234036537 -5.424370486086401e-07 -1.6959602269736109e-06 -1.0933156717530838e-15 1.517280289954742e-32 -1.5902773407317584e-15
